<?xml version="1.0" encoding="iso-8859-1"?>
<!-- Generator: Adobe Illustrator 17.1.0, SVG Export Plug-In . SVG Version: 6.00 Build 0)  -->
<!DOCTYPE svg PUBLIC "-//W3C//DTD SVG 1.1//EN" "http://www.w3.org/Graphics/SVG/1.1/DTD/svg11.dtd">
<svg fill="#FB9B9A" version="1.1" id="Capa_1" xmlns="http://www.w3.org/2000/svg" xmlns:xlink="http://www.w3.org/1999/xlink" x="0px" y="0px"
	 viewBox="0 0 416.276 416.276" style="enable-background:new 0 0 416.276 416.276;" xml:space="preserve">
<path id="XMLID_1442_" d="M66.762,328.35c-1.245,3.139-4.255,5.053-7.439,5.053c-0.981,0-1.979-0.182-2.946-0.565
	C25.763,320.697,7.184,305.11,2.65,287.762c-1.117-4.274,1.443-8.646,5.717-9.763c4.276-1.115,8.646,1.442,9.763,5.718
	c3.147,12.044,18.825,24.207,44.145,34.247C66.382,319.593,68.391,324.242,66.762,328.35z M93.951,244.602
	c1.506,1.283,3.35,1.91,5.185,1.91c2.262,0,4.511-0.955,6.093-2.812c2.866-3.363,2.462-8.413-0.901-11.278
	c-3.969-3.382-7.851-6.965-11.537-10.652c-35.156-35.156-53.571-79.845-47.989-115.471c15-2.351,31.599-0.447,48.424,5.169
	c0.712,0.374,1.486,0.644,2.298,0.789c22.394,7.915,45.065,22.351,64.747,42.032c4.954,4.954,9.673,10.206,14.024,15.61
	c2.771,3.441,7.807,3.983,11.249,1.214c3.441-2.771,3.984-7.808,1.213-11.249c-4.71-5.849-9.814-11.531-15.173-16.89
	c-20.221-20.221-43.537-35.366-66.99-44.313c-0.573-14.469,1.884-27.678,7.07-38.089c13.214,2.872,26.878,10.907,39.168,23.082
	c-1.714,6.828-3.082,13.89-4.075,21.133c-0.6,4.377,2.461,8.412,6.839,9.013c4.379,0.601,8.413-2.462,9.013-6.839
	c5.376-39.2,22.399-72.106,45.942-89.297c23.539,17.187,40.56,50.086,45.939,89.281c0.601,4.377,4.635,7.441,9.014,6.838
	c4.377-0.601,7.438-4.636,6.838-9.014c-0.993-7.236-2.359-14.291-4.072-21.112c12.288-12.172,25.966-20.212,39.17-23.084
	c5.185,10.412,7.641,23.62,7.067,38.088c-23.45,8.948-46.771,24.095-66.989,44.314c-5.36,5.36-10.464,11.043-15.17,16.89
	c-2.771,3.441-2.227,8.478,1.215,11.248c3.441,2.771,8.479,2.227,11.248-1.215c4.349-5.401,9.065-10.653,14.021-15.609
	c19.679-19.681,42.346-34.115,64.737-42.03c0.817-0.146,1.596-0.417,2.313-0.795c16.819-5.612,33.422-7.517,48.418-5.166
	c5.582,35.627-12.833,80.316-47.988,115.473c-3.688,3.689-7.569,7.271-11.536,10.646c-3.365,2.863-3.771,7.913-0.908,11.277
	c2.864,3.364,7.913,3.771,11.277,0.908c4.292-3.653,8.491-7.528,12.481-11.52c40.635-40.635,60.773-93.78,51.307-135.392
	c-0.683-3.001-3.025-5.344-6.026-6.026c-16.173-3.68-34.084-2.887-52.328,1.843c-0.174-17.621-4.367-33.657-12.15-46.006
	c-1.641-2.603-4.628-4.032-7.686-3.682c-16.072,1.856-32.688,9.863-47.63,22.812c-10.333-28.872-27.262-52.163-48.3-65.403
	c-2.605-1.639-5.918-1.638-8.522,0c-21.039,13.241-37.967,36.531-48.3,65.4c-14.94-12.949-31.54-20.95-47.628-22.809
	c-3.055-0.349-6.044,1.078-7.685,3.681C92.892,59.85,88.698,75.885,88.524,93.509c-18.243-4.729-36.158-5.522-52.328-1.843
	c-3,0.683-5.343,3.025-6.026,6.026c-9.467,41.61,10.673,94.755,51.308,135.391C85.463,237.069,89.66,240.944,93.951,244.602z
	 M90.161,307.164c1.458-4.171-0.74-8.733-4.911-10.192c-24.138-8.44-38.549-19.106-38.549-28.532c0-6.09,6.278-12.972,17.678-19.38
	c3.852-2.165,5.219-7.042,3.054-10.894c-2.165-3.853-7.043-5.221-10.894-3.054c-17.145,9.637-25.838,20.85-25.838,33.327
	c0,17.276,17.037,32.365,49.268,43.636c0.874,0.306,1.765,0.45,2.641,0.45C85.915,312.526,89.008,310.461,90.161,307.164z
	 M330.244,297.527c-4.184,1.421-6.424,5.964-5.003,10.147c1.131,3.331,4.242,5.43,7.574,5.43c0.854,0,1.721-0.138,2.573-0.427
	c33.374-11.334,51.015-26.632,51.015-44.238c0-12.028-8.098-22.898-24.067-32.309c-3.81-2.243-8.712-0.975-10.954,2.831
	c-2.243,3.807-0.976,8.711,2.831,10.954c10.44,6.151,16.19,12.73,16.19,18.523C370.403,277.969,355.014,289.115,330.244,297.527z
	 M287.892,356c0,8.104-6.593,14.698-14.696,14.698c-4.418,0-8,3.582-8,8s3.582,8,8,8c16.926,0,30.696-13.772,30.696-30.7
	c0-4.418-3.582-7.999-8-7.999S287.892,351.582,287.892,356z M407.909,277.999c-4.271-1.113-8.646,1.442-9.763,5.718
	c-3.147,12.045-18.824,24.207-44.145,34.247c-4.106,1.628-6.116,6.278-4.487,10.386c1.245,3.14,4.255,5.053,7.438,5.053
	c0.981,0,1.979-0.182,2.947-0.565c30.615-12.14,49.193-27.727,53.727-45.075C414.744,283.487,412.183,279.116,407.909,277.999z
	 M265.751,281.474c0,4.355-3.543,7.898-7.897,7.898c-4.418,0-8,3.582-8,8s3.582,8,8,8c13.177,0,23.897-10.722,23.897-23.9
	c0-4.418-3.582-7.999-8-7.999S265.751,277.056,265.751,281.474z M242.892,230.378h2.087c4.418,0,8-3.582,8-8s-3.582-8-8-8h-2.087
	c-4.418,0-8,3.582-8,8S238.474,230.378,242.892,230.378z M325.525,322.103c7.332,10.172,11.207,22.16,11.207,34.667
	c0,32.813-26.693,59.507-59.505,59.507H139.877c-32.811,0-59.505-26.693-59.505-59.504c0-21.775,12.057-41.691,30.78-52.074
	c-2.617-5.925-4.072-12.475-4.072-19.356c0-20.931,13.447-38.778,32.156-45.357c-4.134-5.981-6.558-13.231-6.558-21.036
	c0-20.453,16.638-37.09,37.088-37.09h77.573c20.45,0,37.088,16.637,37.088,37.087c0,20.453-16.638,37.091-37.088,37.091h-77.573
	c-4.98,0-9.733-0.986-14.076-2.774c-0.182,0.013-0.367,0.019-0.552,0.019c-17.677,0-32.059,14.382-32.059,32.061
	c0,6.614,2.014,12.768,5.459,17.879c0.273,0.327,0.521,0.679,0.742,1.054c5.839,7.954,15.255,13.127,25.857,13.127h106.829
	c17.677,0,32.058-14.382,32.058-32.059c0-9.522-4.242-18.51-11.64-24.658c-3.397-2.824-3.862-7.868-1.038-11.267
	s7.868-3.861,11.267-1.038c11.064,9.198,17.411,22.67,17.411,36.962c0,26.5-21.559,48.06-48.058,48.06H155.139
	c-13.852,0-26.353-5.891-35.131-15.298c-14.334,7.413-23.635,22.326-23.635,38.667c0,23.991,19.516,43.507,43.505,43.507h137.351
	c23.988,0,43.505-19.516,43.505-43.504c0-9.131-2.831-17.884-8.188-25.314c-2.583-3.584-1.771-8.584,1.813-11.168
	S322.939,318.518,325.525,322.103z M148.678,218.945c0,11.631,9.46,21.091,21.088,21.091h77.573c11.628,0,21.088-9.46,21.088-21.088
	c0-11.63-9.46-21.09-21.088-21.09h-77.573C158.139,197.859,148.678,207.318,148.678,218.945z"/>
<g>
</g>
<g>
</g>
<g>
</g>
<g>
</g>
<g>
</g>
<g>
</g>
<g>
</g>
<g>
</g>
<g>
</g>
<g>
</g>
<g>
</g>
<g>
</g>
<g>
</g>
<g>
</g>
<g>
</g>
</svg>
