<?xml version="1.0" encoding="iso-8859-1"?>
<!-- Generator: Adobe Illustrator 17.1.0, SVG Export Plug-In . SVG Version: 6.00 Build 0)  -->
<!DOCTYPE svg PUBLIC "-//W3C//DTD SVG 1.1//EN" "http://www.w3.org/Graphics/SVG/1.1/DTD/svg11.dtd">
<svg fill="#FB9B9A" version="1.1" id="Capa_1" xmlns="http://www.w3.org/2000/svg" xmlns:xlink="http://www.w3.org/1999/xlink" x="0px" y="0px"
	 viewBox="0 0 414.225 414.225" style="enable-background:new 0 0 414.225 414.225;" xml:space="preserve">
<path id="XMLID_1557_" d="M150.612,283.386c3.584,3.443,3.7,9.141,0.257,12.726c-1.767,1.84-4.128,2.766-6.492,2.766
	c-2.243,0-4.488-0.833-6.233-2.509l-5.98-5.743c-3.585-3.443-3.7-9.141-0.257-12.726c3.444-3.585,9.14-3.699,12.726-0.257
	L150.612,283.386z M156.417,253.389c-3.476,3.553-3.415,9.251,0.138,12.728l5.923,5.796c1.751,1.714,4.023,2.567,6.294,2.567
	c2.336,0,4.67-0.904,6.433-2.705c3.476-3.553,3.415-9.251-0.138-12.728l-5.922-5.796
	C165.591,249.774,159.893,249.836,156.417,253.389z M191.285,251.966c2.358,0,4.714-0.922,6.48-2.754
	c3.45-3.578,3.345-9.276-0.233-12.726l-33.083-31.891c-0.126-0.122-0.256-0.24-0.389-0.354l-9.41-8.063
	c-8.676-7.437-22.298-6.922-30.366,1.144c-3.517,3.517-5.338,3.97-5.649,4.022c-0.542-0.229-1.689-1.344-2.317-1.953
	c-0.523-0.509-1.012-0.978-1.466-1.376c-0.027-0.024-0.055-0.048-0.083-0.072l-15.345-13.146c-3.774-3.234-9.457-2.795-12.69,0.979
	c-3.234,3.774-2.796,9.456,0.979,12.69l15.293,13.103c0.239,0.212,0.491,0.463,0.766,0.729c2.185,2.124,6.251,6.076,12.51,6.901
	c6.786,0.9,13.763-2.183,20.729-9.148c1.49-1.489,4.314-1.587,5.927-0.205l9.208,7.892l32.894,31.708
	C186.787,251.129,189.037,251.966,191.285,251.966z M287.223,179.511c-0.11,4.97,3.828,9.088,8.798,9.198
	c0.068,0.001,0.136,0.002,0.204,0.002c4.877,0,8.885-3.899,8.994-8.8l0.228-10.071c0.397-17.492,0.772-34.02,0.92-50.588
	c0.72-1.382,1.356-2.798,1.905-4.243c1.764-4.646-0.572-9.844-5.219-11.608c-4.646-1.764-9.844,0.572-11.609,5.22
	c-2.899,7.634-10.3,14.08-19.798,17.242c-4.716,1.57-7.267,6.666-5.696,11.382c1.57,4.716,6.665,7.27,11.382,5.696
	c3.823-1.272,7.438-2.93,10.779-4.91c-0.18,10.248-0.416,20.642-0.66,31.4L287.223,179.511z M236.581,14.014
	c5.4,21.552,23.046,38.435,40.172,38.435h25.325c11.292,0,23.482,5.236,31.81,13.664c10.888,11.023,13.853,21.982,12.204,45.102
	l-5.477,76.757c-0.354,4.958,3.378,9.264,8.336,9.618c0.218,0.016,0.435,0.022,0.65,0.022c4.679,0,8.63-3.62,8.968-8.359
	l5.477-76.757c1.703-23.874-0.605-42.077-17.353-59.033c-11.766-11.905-28.444-19.014-44.615-19.014h-25.325
	c-7.787,0-19.154-10.61-22.712-24.81l-0.708-2.823c-1.208-4.822-6.098-7.753-10.918-6.543c-4.821,1.209-7.75,6.097-6.542,10.918
	L236.581,14.014z M154.641,169.791c-2.55,4.267-1.159,9.793,3.107,12.343c4.265,2.55,9.792,1.159,12.343-3.106
	c7.887-13.195,22.323-21.392,37.673-21.392c20.327,0,37.855,13.772,42.625,33.491c0.997,4.12,4.681,6.886,8.74,6.886
	c0.7,0,1.413-0.082,2.124-0.254c4.831-1.169,7.8-6.033,6.631-10.864c-6.731-27.825-31.454-47.259-60.121-47.259
	C186.115,139.636,165.76,151.191,154.641,169.791z M78.655,301.313c-7.856-8.481-8.759-16.137-7.636-17.26
	c7.355-7.354,8.757-14.81,8.637-19.768c-0.324-13.435-11.379-23.47-16.692-28.292c-0.563-0.511-1.037-0.937-1.347-1.243
	l-29.775-29.774c-3.515-3.514-9.213-3.514-12.728,0c-3.515,3.515-3.515,9.214,0,12.729l29.805,29.805
	c0.482,0.478,1.148,1.088,1.946,1.812c3.189,2.896,10.657,9.675,10.795,15.399c0.019,0.781,0.076,3.159-3.37,6.604
	c-9.672,9.673-6.591,27.493,7.322,42.396c0.076,0.083,0.153,0.163,0.232,0.243c0.069,0.07,0.139,0.139,0.209,0.205l46.934,45.077
	c1.745,1.676,3.991,2.509,6.233,2.509c2.364,0,4.725-0.926,6.492-2.766c3.443-3.585,3.328-9.282-0.257-12.726L78.655,301.313z
	 M146.967,137.244c1.57-4.717-0.981-9.813-5.697-11.382c-7.125-2.372-13.069-6.591-16.818-11.774
	c-0.142-0.222-0.292-0.438-0.453-0.646c-1.041-1.536-1.891-3.15-2.526-4.822c-1.764-4.646-6.962-6.985-11.608-5.22
	c-4.647,1.764-6.984,6.961-5.22,11.608c0.865,2.28,1.952,4.489,3.236,6.606c0.16,15.733,0.522,31.719,0.873,47.205
	c0.111,4.899,4.117,8.796,8.994,8.796c0.069,0,0.138-0.001,0.208-0.002c4.969-0.113,8.907-4.232,8.794-9.202
	c-0.22-9.743-0.445-19.685-0.622-29.622c2.966,1.647,6.134,3.044,9.458,4.15C140.302,144.514,145.398,141.96,146.967,137.244z
	 M395.11,222.297c-3.515-3.514-9.213-3.515-12.728,0.001l-29.742,29.744c-0.34,0.336-0.814,0.761-1.376,1.271
	c-5.313,4.823-16.369,14.858-16.693,28.294c-0.12,4.958,1.281,12.412,8.637,19.769c1.123,1.122,0.222,8.77-7.624,17.244
	l-75.043,71.503c-6.37,6.01-17.398,7.464-20.255,4.964c-0.23-0.228-0.844-0.839-1.635-1.629l65.993-62.88
	c3.599-3.429,3.736-9.125,0.307-12.724c-3.428-3.599-9.126-3.738-12.724-0.308l-75.238,71.688
	c-6.353,5.995-17.344,7.456-20.286,4.931c-0.367-0.36-1.47-1.461-2.744-2.734c1.497-1.029,2.899-2.15,4.18-3.354l83.905-80.111
	c3.595-3.433,3.727-9.13,0.294-12.725c-3.432-3.596-9.129-3.728-12.725-0.295l-83.854,80.064
	c-6.088,5.721-17.593,7.238-21.217,4.024c-0.309-0.304-1.186-1.178-2.268-2.258l95.399-93.34c3.553-3.476,3.615-9.174,0.139-12.727
	c-3.477-3.553-9.175-3.617-12.727-0.139l-55.286,54.092l-5.139-3.766c-0.821-0.602-1.93-1.657-2.079-3.875
	c-0.205-3.037,1.397-6.671,4.042-9.221l84.793-80.738c1.63-1.271,4.348-1.144,5.797,0.307c6.966,6.966,13.934,10.045,20.729,9.151
	c6.258-0.825,10.325-4.777,12.51-6.901c0.275-0.267,0.528-0.519,0.768-0.73l15.292-13.104c3.774-3.234,4.212-8.916,0.978-12.69
	c-3.235-3.774-8.917-4.212-12.69-0.978l-15.343,13.147c-0.027,0.023-0.054,0.047-0.081,0.07c-0.455,0.398-0.943,0.867-1.468,1.377
	c-0.627,0.609-1.775,1.725-2.317,1.953c-0.312-0.054-2.133-0.506-5.65-4.023c-8.066-8.064-21.687-8.577-30.364-1.143
	c-0.12,0.103-0.236,0.208-0.35,0.316l-85.056,80.989c-6.543,6.307-10.114,15.065-9.549,23.429
	c0.471,6.985,3.809,13.088,9.399,17.184l2.737,2.006l-33.563,32.839c-3.452,3.377-3.623,8.875-0.389,12.461
	c0.539,0.597,9.107,9.151,9.463,9.48c6.048,5.591,14.677,7.312,23.262,6.215c0.008,0.01,0.017,0.019,0.025,0.028
	c0.536,0.593,8.604,8.643,8.915,8.927c10.245,9.417,28.666,6.809,40.859-1.785c1.487,1.481,2.659,2.645,2.692,2.676
	c4.51,4.146,10.603,5.96,17.052,5.96c9.936,0,20.718-4.309,27.852-11.04l75.271-71.719c0.124-0.118,0.245-0.24,0.362-0.365
	c13.96-14.916,17.062-32.771,7.376-42.454c-3.445-3.445-3.388-5.822-3.369-6.604c0.139-5.726,7.607-12.506,10.797-15.4
	c0.797-0.724,1.462-1.333,1.975-1.841l29.774-29.775C398.625,231.51,398.625,225.812,395.11,222.297z M147.457,337.247
	c3.449-3.579,3.342-9.277-0.237-12.726l-25.184-24.262c-3.579-3.449-9.277-3.343-12.726,0.237
	c-3.449,3.579-3.342,9.277,0.237,12.726l25.184,24.262c1.746,1.683,3.996,2.519,6.243,2.519
	C143.334,340.003,145.691,339.081,147.457,337.247z M221.609,201.005c0.998,4.12,4.681,6.886,8.74,6.885
	c0.701,0,1.414-0.082,2.125-0.255c4.831-1.169,7.799-6.033,6.63-10.864c-3.551-14.668-16.582-24.912-31.689-24.912
	c-11.409,0-22.136,6.089-27.996,15.891c-2.551,4.267-1.16,9.793,3.106,12.343c4.265,2.55,9.792,1.159,12.343-3.106
	c2.667-4.463,7.358-7.127,12.546-7.127C214.184,189.859,220.021,194.443,221.609,201.005z M54.021,166.334
	c0.338,4.74,4.289,8.359,8.968,8.359c0.215,0,0.432-0.008,0.65-0.022c4.958-0.354,8.69-4.66,8.336-9.618l-3.843-53.839
	c-1.649-23.119,1.316-34.078,12.202-45.1c8.33-8.43,20.521-13.666,31.814-13.666h25.324c17.127,0,34.772-16.883,40.169-38.429
	l0.709-2.823c1.211-4.82-1.714-9.711-6.535-10.922c-4.818-1.215-9.71,1.714-10.922,6.535l-0.711,2.83
	c-3.556,14.199-14.923,24.809-22.71,24.809h-25.324c-16.172,0-32.852,7.108-44.619,19.016
	c-16.746,16.954-19.055,35.157-17.352,59.031L54.021,166.334z"/>
<g>
</g>
<g>
</g>
<g>
</g>
<g>
</g>
<g>
</g>
<g>
</g>
<g>
</g>
<g>
</g>
<g>
</g>
<g>
</g>
<g>
</g>
<g>
</g>
<g>
</g>
<g>
</g>
<g>
</g>
</svg>
